# xmcd
#
# Track frame offsets:
#	150
#	14306
#	32035
#	45935
#	62316
#	76014
#	92973
#	108442
#	123275
#	138047
#	151454
#	167804
#
# Disc length: 2399 seconds
# Revision: 0
# Processed by: cddbd v1.5.2PL0 Copyright (c) Steve Scherf et al.
# Submitted via: dBpowerAMP V12.0
#
DISCID=84095d0c
DTITLE=Bessy Argyraki - Xanagyrisa Se Sena
DYEAR=1992
DGENRE=Greek Pop
TTITLE0=Xano to mialo mou
TTITLE1=H Lampsi (From the Series 'I Lampsi')
TTITLE2=Ta Matia Sou
TTITLE3=Se Fantazomai
TTITLE4=Prolavaineis
TTITLE5=Esy
TTITLE6=Xanagirisa
TTITLE7=M'anevazeis
TTITLE8=Mh se xanadw
TTITLE9=den Xanagine
TTITLE10=Skynes
TTITLE11=To Kleidi
EXTD=
EXTT0=
EXTT1=
EXTT2=
EXTT3=
EXTT4=
EXTT5=
EXTT6=
EXTT7=
EXTT8=
EXTT9=
EXTT10=
EXTT11=
PLAYORDER=
